# xmcd
# Copyright (C) 1995-1998 Ti Kan
#
# Track frame offsets:
#       151
#       17016
#       31697
#       42965
#       59908
#       76783
#       89083
#       106215
#       122179
#       136394
#       150913
#       162676
#
# Disc length: 2462 seconds
#
# Revision: 0
# Processed by: cddbd v1.4PL0 Copyright (c) Steve Scherf et al.
# Submitted via: CD-Transfer v1.0
#
DISCID=98099c0c
DTITLE=Still Straight - Rocchinotti, Zwicky, Wegner, Ray, Rich, Gibson
DYEAR=99
DGENRE=
TTITLE0=On Step Ahead
TTITLE1=Hank The Gun
TTITLE2=Ain^t No One In Love With Me
TTITLE3=It's Time - I Settled Down
TTITLE4=Early Days
TTITLE5=Boogie Woogie Thang
TTITLE6=Reborn Man
TTITLE7=Runaway Cadillac
TTITLE8=I'm Sorry To Distrub You
TTITLE9=I Left Something Turned On At Home
TTITLE10=Ice Cold Beer and Red Hot Women
TTITLE11=Mamas Don't Let Your Babies Grow Up..
EXTD=
EXTT0=
EXTT1=
EXTT2=
EXTT3=
EXTT4=
EXTT5=
EXTT6=
EXTT7=
EXTT8=
EXTT9=
EXTT10=
EXTT11=
PLAYORDER=
